<?xml version="1.0" standalone="no"?>
<!DOCTYPE svg PUBLIC "-//W3C//DTD SVG 1.1//EN" "http://www.w3.org/Graphics/SVG/1.1/DTD/svg11.dtd" >
<svg xmlns="http://www.w3.org/2000/svg">
<metadata></metadata>
<defs>
<font id="rugamikaregular" horiz-adv-x="1014" >
<font-face units-per-em="2048" ascent="1638" descent="-410" />
<missing-glyph horiz-adv-x="508" />
<glyph horiz-adv-x="0" />
<glyph unicode="&#xd;" horiz-adv-x="508" />
<glyph unicode=" "  horiz-adv-x="508" />
<glyph unicode="&#x09;" horiz-adv-x="508" />
<glyph unicode="&#xa0;" horiz-adv-x="508" />
<glyph unicode="!" horiz-adv-x="504" d="M0 1387v12q0 102 67 173q0 -1 1 -1q-1 -4 -3 -24q0 -86 94 -114q8 -3 63 -5q75 -25 75 -72v-810q0 -38 -67 -65q-20 -5 -38 -5h-27q-84 0 -106 72v680q-59 68 -59 159zM59 86v68q0 63 63 84h104q48 0 71 -62v-105q0 -46 -57 -68q-7 -3 -21 -3h-81q-57 0 -78 64 q-1 13 -1 22z" />
<glyph unicode="&#x22;" horiz-adv-x="672" d="M101 1500q0 37 20.5 57t59.5 20t60.5 -19.5t21.5 -56.5q0 -8 -4 -34l-62 -359h-30l-62 359q-4 23 -4 33zM413 1500q0 37 20.5 57t59.5 20t60.5 -19.5t21.5 -56.5q0 -8 -4 -34l-62 -359h-30l-62 359q-4 23 -4 33z" />
<glyph unicode="#" horiz-adv-x="1336" d="M117 472l30 98h271l86 290h-295l29 97h295l140 477h93l-141 -477h242l142 477h92l-141 -477h259l-29 -97h-259l-83 -290h279l-30 -98h-280l-140 -472h-92l139 472h-240l-142 -472h-92l140 472h-273zM511 569h242l86 290h-243z" />
<glyph unicode="$" d="M113 1079q0 166 125 271q105 88 266 102v100h73v-102q68 -8 141 -35q10 -6 19 -6q25 0 41 45h50l103 -282h-49q-60 134 -168 179q-74 30 -137 39v-540q241 -93 322.5 -183t81.5 -264q0 -197 -119.5 -300t-284.5 -120v-239h-73v237q-188 3 -266 38q-10 6 -19 6 q-25 0 -41 -45h-50v331h49q50 -183 152.5 -226t174.5 -43v635q-214 67 -299 153q-92 91 -92 249zM219 1139q0 -98 55 -153q52 -54 230 -113v520q-119 -5 -199 -72q-86 -73 -86 -182zM577 45q125 17 211.5 96t86.5 219q0 116 -69 183q-62 59 -229 112v-610z" />
<glyph unicode="%" horiz-adv-x="1403" d="M0 1392v13q0 102 67 174q0 -2 2 -2q-2 -3 -4 -24q0 -86 94 -115q18 -3 18 -4l16 1h202q90 0 123 -70q11 -23 11 -61v-223q0 -3 -11 -3v-1q9 0 11 -2q0 -64 -65 -104q-25 -12 -53 -12h-221q-81 0 -113 86q-5 16 -5 36v139q-72 70 -72 172zM145 3q715 1431 717 1433h238 q-2 -6 -711 -1426q-5 -8 -6 -8h-235zM194 1100h212v232h-212v-232zM767 118v241q0 81 90 114q21 4 39 4h202q90 0 121 -88q3 -15 3 -24v-242l-3 -5q3 -1 3 -3v-5q0 -64 -76 -104q-25 -6 -41 -6h-220q-81 0 -114 86q-4 12 -4 32zM888 124q0 -3 3 -3h210v233h-213v-230z" />
<glyph unicode="&#x26;" horiz-adv-x="1122" d="M0 215v451q0 114 97 189q53 26 68 26v340q-47 0 -91 90q-18 42 -18 88v12q0 95 62 161q0 -2 2 -2l-2 -2q0 -12 -1 -21q0 -78 87 -105q11 -3 20 -3h48q4 0 4 2q2 0 4 -2q144 2 223 2h105q150 0 207 -135q17 -46 17 -99v-200q0 -155 -122 -210q-46 -24 -128 -24h-197 q281 -353 287 -357q108 163 110 168q6 0 96 -61v-2q-1 0 -133 -198l185 -231q-9 -11 -87 -71l-164 202h-2q-142 -218 -149 -223h-314q-91 0 -168 78q-46 61 -46 137zM112 280q0 -77 61 -101q24 -12 60 -12h270q4 2 102 150l-366 456h-25q-70 0 -93 -67q-9 -24 -9 -55v-371z M279 906q9 -14 16 -19h310q76 0 106 62q8 22 8 41v130q0 64 -74 92q-21 6 -41 6h-207q-86 0 -109 -65q-9 -22 -9 -40v-207z" />
<glyph unicode="'" horiz-adv-x="346" d="M101 1500q0 37 20.5 57t59.5 20t60.5 -19.5t21.5 -56.5q0 -8 -4 -34l-62 -359h-30l-62 359q-4 23 -4 33z" />
<glyph unicode="(" horiz-adv-x="735" d="M0 1394v13q0 103 67 174q0 -2 2 -2q-2 -3 -4 -24q0 -86 98 -116q12 0 24 -7q22 5 40 5h308q3 0 3 -3v-233q0 -3 -3 -3h-232q-81 0 -115 -71q-8 -23 -8 -44v-722q0 -54 39 -93q25 -28 107 -28h209q3 -1 3 -4v-233q0 -3 -3 -3h-291q-108 0 -163 86q-22 37 -22 102v1046 q-59 69 -59 160z" />
<glyph unicode=")" horiz-adv-x="798" d="M0 1399v13q0 103 67 175q0 -2 2 -2q-2 -3 -3 -24q0 -87 94 -115q12 -4 23 -4h251q108 0 154 -110q13 -38 13 -67v-1090q0 -130 -133 -169q-27 -6 -53 -6h-292q-3 0 -3 3v234q1 3 3 3h212q96 0 120 45q26 35 26 85v702q0 93 -72 120q-28 10 -55 10h-231l-38 13 q-85 73 -85 184z" />
<glyph unicode="*" horiz-adv-x="792" d="M0 1113v73q0 36 62 52q14 2 28 2h52q10 0 31 -2q-57 67 -57 155v12q0 100 65 169q0 -2 1 -2q-1 -3 -3 -23q0 -83 92 -111q11 -3 21 -3h44q40 0 64 -48q7 -12 7 -34v-67q0 -23 -10 -43l3 -6q20 3 38 3h52q66 0 87 -40q3 -10 3 -14v-68q0 -36 -62 -53h-59v-1 q37 -86 37 -107v-5q0 -46 -51 -63q-41 -17 -52 -17q-54 0 -85 101q-8 13 -8 18h-3q-36 -92 -59 -104q-17 -15 -40 -15q-17 0 -84 37q-15 19 -15 39v15q0 20 40 102h-71q-47 0 -68 48z" />
<glyph unicode="+" d="M87 647v140h350v369l1 1h139v-370h349l1 -1v-139h-350v-370h-140v370h-350z" />
<glyph unicode="," horiz-adv-x="498" d="M-4 210v13q0 106 69 180q0 -2 2 -2q-2 -3 -3 -24q0 -89 97 -119q12 -3 23 -3h51q51 0 74 -66v-302q0 -3 -3 -3h-117q-4 0 -4 3v121h-39q-60 0 -86 36q-64 67 -64 166z" />
<glyph unicode="-" horiz-adv-x="1296" d="M-8 539v14q0 114 74 193q0 -2 2 -2q-2 -4 -4 -26q0 -96 105 -127q13 -4 24 -4h847q42 0 74 -74q3 -20 3 -28v-59q0 -68 -67 -102l-21 -2h-882q-67 8 -67 21q-88 74 -88 196z" />
<glyph unicode="." horiz-adv-x="532" d="M0 210v14q0 110 72 186q0 -1 2 -1q-2 -4 -4 -26q0 -92 101 -123q13 -3 24 -3h48q52 0 77 -67v-113q0 -50 -62 -74q-7 -3 -22 -3h-87q-63 8 -63 21q-86 71 -86 189z" />
<glyph unicode="/" horiz-adv-x="1137" d="M0 2q608 1216 608 1218q-71 68 -71 177t67 178h1l-1 -19v-6q0 -92 106 -117h242l4 -1q-715 -1430 -717 -1432h-236z" />
<glyph unicode="0" horiz-adv-x="1199" d="M0 1395v13q0 103 67 174q0 -1 2 -1q-2 -4 -3 -24q0 -87 97 -117q12 0 24 -6q22 5 40 5h619q65 0 126 -52q46 -50 46 -110v-1106q0 -71 -59 -131q-44 -40 -120 -40h-594q-109 0 -163 86q-23 37 -23 103v1047q-59 68 -59 159zM184 360q0 -83 77 -109q20 -6 40 -6h474v834 q0 82 -73 109q-28 8 -51 8h-467v-836z" />
<glyph unicode="1" horiz-adv-x="697" d="M0 1406v13q0 104 68 175q0 -1 1 -1q-1 -4 -3 -24q0 -87 95 -116q13 -3 21 -3q58 0 79 1q61 -1 129 -1h95q3 -1 3 -4v-1443q0 -3 -3 -3h-235q-4 0 -4 3v1205h-122l-39 13q-85 73 -85 185z" />
<glyph unicode="2" horiz-adv-x="1228" d="M0 1384v13q0 102 67 173q0 -2 1 -2q-1 -3 -3 -23q0 -85 90 -113h281q166 6 209 6q296 0 367 -146q31 -59 31 -136v-22q0 -205 -269 -390q-59 -42 -305 -206q-200 -150 -242 -283v-14q0 -3 3 -3q171 0 737 -2q6 0 75 -1l1 -3v-229q0 -3 -3 -3h-945q-3 0 -3 3v216 q0 12 -2 33q0 75 83 203q36 52 116 130q390 342 421 363q91 73 91 145q0 106 -176 139q-31 5 -67 5h-1q-177 0 -221 -149q-5 -40 -9 -40q-197 -3 -233 -5q-2 4 -2 5q0 39 25 145q-55 0 -104 111q-13 44 -13 80z" />
<glyph unicode="3" horiz-adv-x="1226" d="M0 1400v13q0 103 67 175q0 -2 2 -2q-2 -3 -3 -24q0 -86 94 -115q12 -3 23 -3h836q3 -1 3 -4q-7 -5 -478 -596v-2h245q87 0 167 -66q67 -60 67 -187v-273q0 -173 -126 -269q-72 -47 -177 -47h-657q-4 0 -4 3v234q1 4 4 4h450q192 0 254 134q19 50 19 90q-2 177 -8 177 q-13 38 -48 61q-35 19 -74 19h-354v1l320 387q18 25 18 47v1q0 39 -80 45h-436l-39 13q-85 73 -85 184z" />
<glyph unicode="4" horiz-adv-x="1127" d="M0 366v10q0 76 93 207l488 760q-5 30 -6 60q0 108 67 180h1l-1 -26q0 -84 93 -113q15 -4 24 -4h179q3 0 3 -3v-1434q0 -3 -3 -3h-235q-4 0 -4 3v235h-504q-121 0 -153 37q-42 37 -42 91zM174 480h525v720q0 3 -33 10q-1 1 -16 13q-467 -726 -476 -743z" />
<glyph unicode="5" horiz-adv-x="1228" d="M0 1394v13q0 103 67 174q0 -2 2 -2q-2 -3 -4 -24q0 -86 95 -115q12 -3 22 -3h91q18 0 18 2q16 -2 25 -2h519q3 0 3 -3v-233q0 -3 -3 -3h-415q-84 0 -112 -75q-9 0 -16 -285h505q137 0 196 -111q26 -50 26 -143v-333q0 -172 -136 -229q-57 -22 -110 -22h-711q-3 0 -3 3 v233q1 4 3 4h556q137 0 176 38q44 38 44 89q0 59 -1 230q0 66 -101 110q-41 12 -65 12h-492q-86 0 -114 81q-6 26 -6 46v341q0 16 2 47q-61 65 -61 160z" />
<glyph unicode="6" horiz-adv-x="1217" d="M0 1397v13q0 103 67 174q0 -2 2 -2q-2 -3 -3 -24q0 -99 123 -121q16 3 32 3h550q3 0 3 -3v-234q0 -3 -3 -3h-411q-96 0 -123 -86q-3 -21 -3 -39v-294h593q124 0 175 -106q11 -33 11 -61v-441q0 -70 -56 -130q-46 -43 -123 -43h-596q-116 0 -171 99q-14 39 -14 87v1054 q0 3 -24 40q-29 55 -29 117zM237 371q0 -85 59 -113q32 -13 58 -13h425q73 0 101 70q10 24 10 53v166q0 82 -61 109q-29 13 -56 13h-536v-285z" />
<glyph unicode="7" horiz-adv-x="1177" d="M0 1391v12q0 103 67 174q0 -2 1 -2q-1 -3 -3 -23q0 -86 94 -115q12 -3 23 -3h661q89 0 135 -69q11 -24 11 -49v-8q0 -61 -78 -204q-550 -1102 -553 -1104h-235l-4 2q544 1084 544 1089q6 14 9 45q0 59 -76 59h-473l-39 12q-84 73 -84 184z" />
<glyph unicode="8" horiz-adv-x="1222" d="M0 1394v13q0 103 67 174q0 -2 2 -2q-2 -3 -4 -24q0 -86 95 -115q25 -3 25 -11q26 8 48 8h618q120 0 161 -132q5 -23 5 -37v-342q0 -126 -73 -145q-12 -2 -29 -2v-1q48 0 85 -77q17 -50 17 -91v-446q0 -106 -113 -153q-39 -11 -70 -11h-594q-127 0 -167 112q-14 32 -14 80 v392q0 148 43 178q24 17 58 17v2q-45 0 -82 75q-19 52 -19 120v258q-59 69 -59 160zM184 350q0 -72 68 -99q21 -7 40 -7h366q77 0 109 59q8 18 8 42v204q0 73 -69 99q-20 7 -43 7h-364q-75 0 -107 -59q-8 -18 -8 -42v-204zM184 1000q0 -64 64 -88q29 -10 62 -10h342 q85 0 113 56q10 23 10 46v93q0 64 -64 88q-31 10 -66 10h-337q-95 0 -118 -66q-6 -15 -6 -37v-92z" />
<glyph unicode="9" horiz-adv-x="1221" d="M0 1389v12q0 103 67 174q0 -2 1 -2q-1 -3 -3 -24q0 -86 97 -116q12 0 24 -6q22 5 40 5h615q66 0 126 -51q46 -51 46 -110v-1101q0 -71 -59 -130q-44 -40 -119 -40h-534q-4 0 -4 3v232q1 4 4 4h391q143 0 143 127v289h-569q-153 0 -196 110q-11 33 -11 81v384 q-59 68 -59 159zM183 896q0 -82 73 -109q25 -8 54 -8h520v303q0 74 -74 100q-20 8 -53 8h-394q-88 0 -113 -62q-13 -27 -13 -59v-173z" />
<glyph unicode=":" horiz-adv-x="526" d="M5 823v14q0 110 72 186q0 -2 1 -2q-1 -3 -3 -25q0 -92 101 -123q13 -4 24 -4h47q53 0 77 -66v-113q0 -50 -61 -73q-8 -4 -22 -4h-87q-64 8 -64 21q-85 71 -85 189zM68 193v74q0 68 68 90h111q53 0 77 -66v-113q0 -51 -61 -74q-8 -3 -22 -3h-87q-62 0 -84 68q-2 15 -2 24z " />
<glyph unicode=";" horiz-adv-x="530" d="M3 824v13q0 110 71 185q0 -1 2 -1q-2 -4 -3 -26q0 -91 100 -122q13 -3 24 -3h47q52 0 77 -67v-112q0 -50 -62 -73q-7 -3 -22 -3h-86q-63 8 -63 20q-85 71 -85 189zM66 197v73q0 68 68 90h110q52 0 77 -66v-313q0 -3 -4 -3h-120q-4 0 -4 3v124h-42q-62 0 -83 68 q-2 15 -2 24z" />
<glyph unicode="&#x3c;" d="M87 674v83l840 484v-167l-625 -359l625 -355v-167z" />
<glyph unicode="=" d="M87 491v140h840v-140h-840zM87 803v140h840v-140h-840z" />
<glyph unicode="&#x3e;" d="M87 193v167l625 355l-625 359v167l840 -484v-83z" />
<glyph unicode="?" horiz-adv-x="849" d="M0 1396v13q0 103 67 175q0 -2 2 -2q-2 -3 -3 -24q0 -86 94 -115q12 -3 22 -3h304q66 0 127 -52q46 -50 46 -110v-320q0 -5 -179 -478h-237q-3 0 -3 3q176 464 179 482v115q0 81 -75 113q-23 7 -45 7h-145q-68 0 -88 32q-66 65 -66 164zM240 75v88q0 57 66 77h100 q50 0 72 -61q2 -8 2 -16v-88q0 -51 -63 -73q-8 -2 -16 -2h-83q-53 0 -75 58q-3 6 -3 17z" />
<glyph unicode="@" horiz-adv-x="1643" d="M0 178v1083q0 29 14 66q-11 36 -11 75v10q0 104 67 176q0 -2 2 -2l-2 -3v-14q0 -4 -1 -7q0 -86 97 -116q207 1 332 1h779q111 0 153 -86q17 -38 17 -85v-1033q0 -3 -3 -3h-416l-5 3h-661q-83 0 -112 79q-7 25 -7 41v74q0 69 101 126q237 181 512 401h-491q-10 13 -27 109 q-7 36 -7 62v19q0 44 28 50h678q110 0 156 -114q11 -37 11 -64v-304q0 -78 -2 -235h119v709q0 103 -95 123q-12 2 -27 2h-949q-85 0 -116 -71q-8 -23 -8 -57v-935q0 -95 73 -124q19 -8 73 -8h1172q3 0 3 -3v-120q0 -3 -3 -3h-1255q-123 0 -176 106q-13 35 -13 72zM515 483 h429q79 0 79 60v352l-508 -408v-4z" />
<glyph unicode="A" horiz-adv-x="1294" d="M0 1477v18q0 128 68 221l4 2v-2q0 -18 -2 -30q0 -117 114 -152q12 -2 19 -2h75q5 0 46 3h514q205 0 250 -274q4 -28 4 -55v-1203q0 -3 -4 -3h-185q-4 0 -4 3v485h-2q0 -43 -44 -79q-36 -27 -99 -27h-442q-73 0 -106 -77q-10 -26 -10 -53v-249q0 -3 -3 -3h-123q-3 0 -3 3 v1196q0 26 1 69q-68 85 -68 209zM196 474h2q0 45 54 82q35 19 69 19h430q108 0 136 72q12 37 12 64v294q0 145 -99 186q-22 15 -87 24q-25 -2 -34 -2q-68 0 -123 -2l-184 4q-110 0 -160 -113q-16 -47 -16 -90v-538z" />
<glyph unicode="B" horiz-adv-x="1347" d="M0 1477v17q0 128 68 220l3 2v-2q0 -18 -1 -30q0 -116 113 -151q9 0 15 -5h570q181 0 234 -80q12 -27 12 -39q2 -335 2 -522q0 -44 -38 -93q-32 -29 -64 -29v-2q36 0 115 -36q75 -43 104 -127q12 -14 15 -218v-95q0 -201 -141 -258q-67 -29 -202 -29h-674q-4 0 -4 3v1226 q-24 0 -51 27q-76 92 -76 221zM257 944q0 -116 77 -144q25 -5 39 -5h311q127 0 142 34q13 17 13 39v250q0 58 -56 74q-16 7 -179 7h-347v-255zM258 258q429 2 591 2q74 0 95 52q2 12 2 19v198q0 44 -56 64q-17 5 -47 5h-472q-81 0 -111 81v1h-2v-422z" />
<glyph unicode="C" horiz-adv-x="1345" d="M0 1475v17q0 126 67 218l4 2v-2q0 -18 -2 -30q0 -115 112 -149q0 -3 200 -7h494q130 0 153 -20q58 -25 89 -88q10 -25 17 -62q-2 -45 -2 -70v-207q0 -3 -3 -3h-109q-3 0 -12 42q-22 52 -60 70q-10 15 -157 15h-84q-121 0 -344 -1q-31 0 -69 -31q-32 -35 -32 -84v-650 q0 -118 35 -143q40 -40 96 -40h746q3 -1 3 -3v-78q0 -63 -1 -168l-4 -1h-752q-35 0 -94 -2q-43 0 -99 39q-59 47 -59 164v1023q0 4 -36 11q-97 88 -97 238z" />
<glyph unicode="D" horiz-adv-x="1352" d="M0 1476v17q0 128 68 220l3 2v-2q0 -18 -2 -30q0 -116 114 -151q9 0 15 -5h475q186 0 325 -171q151 -201 151 -588v-9q0 -541 -288 -708q-94 -51 -188 -51h-537q-4 0 -4 3v1222q-2 3 -39 14q-93 92 -93 237zM263 259q43 -3 140 -3h97q288 0 320 25q72 23 121 94 q76 117 76 340v32q0 335 -188 427q-59 31 -222 31h-344v-946z" />
<glyph unicode="E" horiz-adv-x="1322" d="M0 1477v17q0 127 68 219l3 2v-2q0 -18 -2 -30q0 -116 113 -150q9 0 15 -5h49q67 3 73 3h606q176 0 206 -172q-2 -43 -2 -68v-209q0 -3 -3 -3h-110q-3 1 -13 45q-31 83 -137 83h-346q-52 0 -142 -2q-3 2 -8 2q-72 0 -105 -64q-10 -26 -10 -51v-283h500q3 -1 3 -4v-189 q0 -3 -3 -3h-500v-186q0 -119 49 -145q36 -29 84 -29h748q3 0 3 -3v-78q0 -63 -1 -169l-4 -1h-776q-25 0 -69 -2q-60 0 -117 51q-47 47 -47 143v1035q0 2 -32 12q-93 92 -93 236z" />
<glyph unicode="F" horiz-adv-x="1324" d="M0 1477v17q0 127 68 219l3 2v-2q0 -18 -2 -30q0 -102 90 -142q16 -8 35 -8h39q70 5 133 5h383q72 0 205 -2q62 -11 101 -40q45 -41 61 -92l7 -35q-2 -52 -2 -83v-197q0 -4 -4 -4h-109q-3 1 -12 43q-20 50 -59 70q-14 16 -164 16h-39q-100 0 -385 -2q-41 0 -81 -42 q-22 -37 -22 -76v-287h500q3 -1 3 -4v-187q0 -3 -3 -3h-500v-610q0 -3 -3 -3h-121q-4 0 -4 3v1228q0 2 -25 10q-93 92 -93 236z" />
<glyph unicode="G" horiz-adv-x="1342" d="M0 1478v15q0 128 68 220l3 2v-2q0 -18 -2 -30q0 -103 90 -143q17 -8 36 -8h47q62 5 131 5h388q66 0 202 -2q70 -12 105 -44q42 -34 57 -91q5 -17 9 -44q-2 -34 -2 -51v-219q0 -3 -3 -3h-112q-3 0 -10 39q-21 55 -61 74q-16 16 -153 16h-52q-107 0 -383 -2q-39 0 -75 -34 q-30 -30 -30 -103v-609q0 -131 23 -154q43 -56 104 -56h510q67 0 112 66q13 35 13 66v158q-285 2 -380 3q0 2 -1 2q1 17 1 25v221q1 3 4 3h502l3 -2q2 -201 2 -308v-288q0 -140 -105 -185q-36 -15 -90 -15h-656q-114 0 -159 108q-12 30 -12 73v1049q-56 0 -107 133 q-17 57 -17 115z" />
<glyph unicode="H" horiz-adv-x="1342" d="M0 1476v17q0 128 68 220l3 2v-2q0 -18 -2 -30q0 -103 92 -144q20 -7 30 -7h65q3 -1 3 -3v-739h663v739q0 3 3 3h217q4 -1 4 -3v-1526q0 -3 -4 -3h-217q-3 0 -3 3v595h-663v-595q0 -3 -3 -3h-124q-3 0 -3 3v1226q-59 0 -109 125q-20 59 -20 122z" />
<glyph unicode="I" horiz-adv-x="561" d="M0 1477v17q0 128 68 221l3 1v-1q0 -19 -2 -31q0 -115 111 -149h181q3 0 3 -3v-1529q0 -3 -3 -3h-207q-3 0 -3 3v1224q-63 9 -63 20q-88 87 -88 230z" />
<glyph unicode="J" horiz-adv-x="1098" d="M0 501v2q1 3 3 3h28q33 0 97 -2q39 -136 130 -203q85 -58 193 -58q218 0 312 215q6 41 6 67v696h-372q-24 0 -60 14q-96 91 -96 249q0 140 72 231h2q-2 -17 -2 -26v-10q0 -100 89 -140h494q3 -1 3 -4v-1027q0 -115 -75 -274q-28 -58 -102 -133q-123 -101 -267 -101h-43 q-156 0 -279 123q-96 113 -123 270q-10 60 -10 108z" />
<glyph unicode="K" horiz-adv-x="1301" d="M0 1474v17q0 127 68 220l3 2v-2q0 -18 -1 -30q0 -103 91 -145q20 -6 31 -6h47q4 -1 4 -4v-395q0 -29 -5 -364q-2 -25 -2 -34h3q120 162 498 693q64 90 73 98q123 -1 158 -1l1 -4q-512 -707 -526 -728v-3q5 -4 688 -785v-3h-316q-3 2 -513 576q-19 13 -30 13 q-25 0 -29 -63v-523q0 -3 -4 -3h-122q-3 0 -3 3v1226q-39 0 -94 119q-20 67 -20 126z" />
<glyph unicode="L" horiz-adv-x="1342" d="M0 1478v17q0 128 68 221l4 2v-2q0 -18 -2 -30q0 -103 92 -145q20 -7 30 -7h55q3 0 3 -3v-1162q0 -81 96 -112q24 -3 34 -3h749q3 -1 3 -4v-180q0 -2 -1 -2l1 -3v-58l-1 -4q-182 -3 -443 -3h-259q-193 0 -218 26q-92 46 -92 144v1059q0 3 -25 11q-94 92 -94 238z" />
<glyph unicode="M" horiz-adv-x="1544" d="M0 1476v17q0 128 68 220l3 2v-2q0 -18 -1 -30q0 -116 110 -150h241q7 0 45 -139l301 -982h1l379 1081q8 27 29 27q6 2 15 2q90 0 115 -55q36 -59 36 -125v-1339q0 -3 -4 -3h-122q-3 0 -3 3v738q0 149 2 397v2h-2q-19 -60 -355 -1021q-68 -119 -146 -119q-75 0 -140 115 q-112 358 -309 1023h-2v-1135q0 -3 -3 -3h-122q-4 0 -4 3v1225q-42 0 -74 53q-58 82 -58 195z" />
<glyph unicode="N" horiz-adv-x="1338" d="M0 1476v17q0 128 68 220l3 2v-2q0 -18 -1 -30q0 -117 113 -151q12 -2 19 -2h107q77 -101 121 -182q248 -430 575 -1087h2v1266q0 3 3 3h123l3 -2q3 -346 3 -830v-248q0 -331 -15 -331q-15 -57 -54 -87q-43 -32 -90 -32h-97q-6 2 -85 158q-6 8 -552 1048h-1v-1203 q0 -3 -4 -3h-122q-4 0 -4 3v1228q-42 0 -95 121q-20 62 -20 124z" />
<glyph unicode="O" horiz-adv-x="1315" d="M0 1476v17q0 128 68 220l3 2v-2q0 -18 -1 -30q0 -116 110 -150q16 -5 27 -5h773q72 0 119 -69q22 -37 22 -68v-1250q0 -73 -73 -122q-32 -19 -60 -19h-747q-60 0 -110 68q-24 37 -24 93v1070q-49 25 -85 119q-22 57 -22 126zM238 343q0 -35 46 -71q31 -16 64 -16h532 q80 0 107 65q5 11 5 19v755q0 126 -21 141q-33 44 -83 44h-525q-125 0 -125 -122v-3q0 -5 1 -5l-1 -9v-798z" />
<glyph unicode="P" horiz-adv-x="1330" d="M0 1477v17q0 127 68 219l3 2v-2q0 -18 -2 -30q0 -109 100 -145h738q150 0 200 -122q12 -39 12 -74v-597q0 -108 -109 -130q-28 0 -42 -2q-283 2 -446 2h-280v-612q0 -3 -4 -3h-123q-3 0 -3 3v1229q0 2 -21 10q-91 92 -91 235zM242 809h610q117 0 142 78q8 24 8 47v147 q0 90 -78 129q-25 10 -76 10h-483q-84 0 -113 -68q-10 -29 -10 -82v-261z" />
<glyph unicode="Q" horiz-adv-x="1341" d="M0 1477v17q0 128 68 221l3 2v-2q0 -18 -1 -30q0 -116 110 -150q17 -5 28 -5h773q72 0 119 -70q23 -36 23 -68v-1252q0 -79 -85 -129q-29 -13 -74 -13h-156q43 -46 78 -53q57 -24 114 -24l2 -3v-125q0 -3 -4 -3q-129 0 -246 80q-71 60 -90 128h-395q-113 0 -153 105 q-7 27 -7 58v1071q-49 25 -85 119q-22 58 -22 126zM238 343q0 -35 46 -72q31 -15 65 -15h250q-29 50 -111 75q-29 3 -29 7v124q1 3 4 3q96 0 199 -81q70 -77 83 -128h136q81 0 107 65q5 11 5 18v757q0 126 -20 141q-33 45 -83 45h-526q-126 0 -126 -123v-3q0 -5 2 -5l-2 -9 v-799z" />
<glyph unicode="R" horiz-adv-x="1081" d="M0 1476v14q0 130 54 223h3q-2 -17 -2 -25v-7q0 -83 46 -126q25 -21 38 -21h382q78 0 228 -1q41 -6 75 -33q38 -37 47 -69q9 -27 13 -70q2 0 2 -6v-601q0 -87 -57 -122q-20 -12 -49 -12h-353l443 -619l-3 -1h-223q-377 509 -455 616h-1v-613q0 -3 -3 -3h-90q-3 0 -3 3 v1223l-19 11q-73 91 -73 239zM188 817h489q117 0 117 132v132q0 118 -78 145q-9 5 -135 5q-62 0 -304 -1q-29 0 -58 -30q-18 -21 -26 -69q-2 -97 -5 -97v-217z" />
<glyph unicode="S" horiz-adv-x="1245" d="M0 129q104 198 119 220q61 -32 153 -58q78 -24 209 -34q25 2 42 2h57q219 0 286 129q18 50 18 93v25q0 149 -149 199q-123 39 -237 39q-123 10 -180 23q-152 44 -199 124q-59 75 -59 224q0 123 64 227v2q-25 65 -25 134v21q0 123 66 214l4 2v-2q0 -10 -2 -30 q0 -108 100 -145q19 -4 26 -9h265q4 0 4 -5q16 2 25 2h38q209 0 423 -95q0 -9 -99 -222l-1 -7h-4q-206 85 -369 85q-28 -2 -42 -2q-34 4 -53 4h-4q-171 0 -222 -119q-23 -63 -23 -134q0 -97 113 -135q98 -30 184 -30q135 -10 241 -37q139 -40 212 -135q79 -116 79 -269 q0 -241 -243 -365q-149 -65 -287 -65h-3q-257 0 -512 119z" />
<glyph unicode="T" horiz-adv-x="1326" d="M0 1479v17q0 129 68 222l4 2v-2q0 -18 -2 -31q0 -116 111 -150q17 -5 28 -5h905q3 -1 3 -4v-299q0 -4 -3 -4h-440q-1 -865 -1 -1223l-4 -2h-123q-4 0 -4 3v1222h-379q-64 0 -84 31q-79 88 -79 223z" />
<glyph unicode="U" horiz-adv-x="1344" d="M0 1473v17q0 129 69 223l3 2v-2q0 -18 -2 -31q0 -117 112 -151h47q3 0 3 -3v-1037q0 -171 10 -171q0 -24 43 -61q31 -15 69 -15q5 0 5 2l12 -2h492q4 0 7 2q3 -2 6 -2h2q87 0 115 70q12 33 12 93v45q0 376 -1 1077l3 2h124l3 -2q2 -31 2 -46v-1275q0 -112 -57 -155 q-55 -53 -161 -53h-581q-164 0 -215 113q-21 42 -21 73v1041q-101 92 -101 246z" />
<glyph unicode="V" horiz-adv-x="1348" d="M0 1477v17q0 129 68 222l4 2v-2q0 -18 -2 -30q0 -117 111 -151h110q6 0 39 -130l285 -1000q24 -73 47 -73h3q29 0 65 138q126 404 294 1063l3 2h129l3 -2q-203 -811 -366 -1294q-54 -143 -101 -189q-47 -50 -106 -50q-111 0 -183 197q-66 247 -290 1034q-31 0 -82 96 q-31 72 -31 150z" />
<glyph unicode="W" horiz-adv-x="1540" d="M0 1476v17q0 130 69 223l3 2v-2q0 -18 -2 -31q0 -116 112 -150h65q3 -1 3 -4v-1090q0 -60 26 -100q9 -7 15 -7h2q28 0 65 62q219 317 246 350q122 156 162 156h11q48 0 108 -91q309 -396 315 -403v873q0 84 -2 252l4 2h125q4 -1 4 -4v-1378q0 -103 -64 -143 q-17 -10 -38 -10h-10q-64 0 -141 132q-97 138 -234 310q-72 62 -134 62h-14q-78 0 -154 -99q-79 -120 -228 -331q-54 -62 -96 -62h-14q-62 0 -82 86q-4 20 -4 48v1083q-45 0 -97 122q-21 63 -21 125z" />
<glyph unicode="X" horiz-adv-x="1257" d="M0 1486q0 141 72 232h2q-2 -20 -2 -29q0 -120 109 -154h128q9 -11 64 -128l167 -340q24 -29 45 -29h3q35 0 80 89q236 408 238 408h145l4 -2q-402 -697 -402 -699v-1q32 -66 405 -831l-3 -2h-281q-17 30 -236 480q-21 35 -47 35q-30 0 -67 -79l-253 -436h-149 q0 7 381 663q0 2 24 45l-251 518l-8 -2q-74 0 -98 43q-70 87 -70 219z" />
<glyph unicode="Y" horiz-adv-x="1245" d="M0 1478v15q0 127 68 220l4 2h1l-1 -3v-12q0 -9 -2 -16q0 -120 114 -152h137q8 -10 63 -128l167 -339q23 -29 45 -29h3q35 0 80 89q236 407 237 407h145l4 -1q-365 -632 -393 -685q-52 -94 -53 -134q-8 -30 -8 -75v-634q0 -3 -3 -3h-125q-3 0 -3 3v509q0 142 -43 198 l-251 515q-19 -3 -26 -3q-43 0 -73 20q-87 93 -87 236z" />
<glyph unicode="Z" horiz-adv-x="1313" d="M0 1488v16q0 121 69 209l3 2h2q-2 -3 -2 -5q0 -11 -2 -26q0 -98 93 -137q94 5 242 5h60q177 0 465 -10q76 -25 121 -98q32 -57 32 -117q0 -114 -122 -221q-324 -381 -635 -788q-28 -28 -38 -50h2q233 7 383 7h124q133 0 303 -7l2 -4v-252q0 -10 -369 -12h-5 q-190 0 -479 9q-86 24 -134 84q-46 63 -46 122q0 111 122 216q113 127 315 369q138 165 347 433q3 0 12 12v1h-729q-5 3 -42 14q-94 88 -94 228z" />
<glyph unicode="[" horiz-adv-x="758" />
<glyph unicode="\" horiz-adv-x="569" />
<glyph unicode="]" horiz-adv-x="758" />
<glyph unicode="^" />
<glyph unicode="_" horiz-adv-x="1024" d="M0 -100h1024v-60h-1024v60z" />
<glyph unicode="`" horiz-adv-x="1024" d="M212 1363q0 31 20.5 51t53.5 20q20 0 40.5 -12t55.5 -47l291 -296h-69l-330 202q-31 20 -46.5 40t-15.5 42z" />
<glyph unicode="a" horiz-adv-x="997" d="M0 766v10q0 86 56 146q0 -1 1 -1q-1 -3 -2 -20q0 -72 79 -97q10 -2 18 -2h513q99 0 134 -106q7 -24 7 -48v-60q0 -477 -7 -477q-16 -54 -49 -78q-46 -33 -97 -33h-550q-73 0 -95 71q-4 14 -4 28v64q0 54 72 96q141 107 440 341v1h-412l-29 10q-75 56 -75 155zM230 200 h358q47 0 61 24q6 15 6 31v289q-32 -24 -425 -344z" />
<glyph unicode="b" horiz-adv-x="1126" d="M0 1560v11q0 85 56 144q0 -1 1 -1q-1 -3 -3 -20q0 -72 81 -97q10 0 20 -5h171q3 -1 3 -3v-793h447q124 0 148 -132v-529q0 -71 -70 -115q-42 -19 -71 -19h-521q-65 0 -107 60q-26 43 -26 91v1245h-2q-56 0 -73 26q-54 55 -54 137zM330 295q0 -66 50 -85q20 -7 44 -7h300 q74 0 95 55q3 11 3 23v230q0 67 -36 81q-5 2 -10 2h-350q-67 0 -92 -52q-4 -18 -4 -44v-203z" />
<glyph unicode="c" horiz-adv-x="1046" d="M0 763v10q0 86 56 146q0 -2 1 -2q-1 -3 -2 -20q0 -72 81 -97l9 -1q29 0 706 -3q0 -1 1 -1q-3 -140 -3 -195l-2 -1h-497q-70 0 -93 -63q-7 -20 -7 -37v-203q0 -68 70 -91q19 -5 51 -5h476q2 -1 2 -3v-194q0 -3 -2 -3h-647q-106 0 -139 93q-12 27 -12 67v470 q-49 57 -49 133z" />
<glyph unicode="d" horiz-adv-x="1000" d="M0 139v511q0 76 65 127q37 21 94 21h437v624q0 3 -20 30q-29 50 -29 110q0 91 56 149h1l-1 -16v-5q0 -75 85 -96h106q2 0 2 -2v-1447q0 -66 -55 -117q-39 -28 -89 -28h-503q-67 0 -118 52q-31 40 -31 87zM102 285q0 -59 56 -75q21 -8 65 -8h248q89 0 106 33q18 20 18 52 v224q0 64 -65 80q-22 4 -39 4h-340q-49 0 -49 -88v-222z" />
<glyph unicode="e" horiz-adv-x="1041" d="M0 761v11q0 85 56 145q0 -2 1 -2q-1 -3 -3 -20q0 -71 79 -95q2 0 9 -3q14 5 45 8q46 -1 67 -1h451q116 0 140 -76q8 -33 8 -60v-85q0 -45 -75 -89q-192 -140 -390 -295h461l2 -1q2 -46 2 -66v-129q0 -3 -3 -3h-663q-88 0 -121 94q-13 24 -13 208v58q0 64 1 258l2 2 q-56 61 -56 141zM199 248q3 -16 3 -20h3q484 359 495 368h-387q-70 0 -100 -55q-8 -14 -8 -93q-3 -139 -6 -200z" />
<glyph unicode="f" horiz-adv-x="1058" d="M5 746v10q0 87 56 147q0 -2 2 -2q-2 -3 -3 -20q0 -69 72 -94h2q29 15 67 15h657q3 0 3 -3v-196q0 -2 -3 -2h-493q-78 0 -104 -66q-4 -19 -4 -31v-306h400q3 0 3 -2v-196q0 -3 -3 -3h-400v-551q0 -3 -2 -3h-198q-2 0 -2 3v1166q-50 57 -50 134z" />
<glyph unicode="g" horiz-adv-x="1056" d="M3 763v11q0 86 56 146q0 -2 1 -2q-1 -2 -2 -20q0 -72 79 -96q21 -2 21 -9q33 8 60 8h479q109 0 143 -78q18 -37 18 -62v-1061l-3 -4v-5q0 -115 -112 -147q-21 -4 -32 -4h-255q-3 0 -3 3v145q0 3 3 3h101q72 0 96 75q4 18 4 30v302h-458q-98 0 -133 99q-10 27 -10 52v477 q-53 58 -53 137zM161 277q5 -74 42 -74q5 -2 15 -2h319q86 0 110 44q8 15 8 32v241q0 52 -59 73q-15 6 -40 6h-295q-70 0 -95 -49q-5 -12 -5 -22v-249z" />
<glyph unicode="h" horiz-adv-x="1051" d="M0 1562v11q0 86 56 145q0 -1 1 -1q-1 -3 -2 -20q0 -72 78 -96q10 -3 19 -3h100q2 0 2 -3v-796h455q69 0 121 -61q22 -39 22 -77v-658q0 -3 -2 -3h-95q-3 0 -3 3v492q0 70 -58 98q-22 6 -41 6h-399v-596q0 -3 -2 -3h-196q-3 0 -3 3v1422q-53 58 -53 137z" />
<glyph unicode="i" horiz-adv-x="447" d="M0 1161v11q0 86 56 145q0 -1 1 -1q-1 -3 -2 -20q0 -72 78 -96q21 -3 21 -9q0 -2 27 -12q72 -42 72 -120v-59q0 -3 -3 -3h-142q-36 6 -49 22q-59 59 -59 142zM49 3v793q1 3 3 3h196q2 0 2 -3v-793q0 -3 -2 -3h-196q-3 0 -3 3z" />
<glyph unicode="j" horiz-adv-x="598" d="M-9 604v201q0 3 3 3h239q112 0 146 -72q22 -40 22 -81v-1226q0 -3 -3 -3h-199q-3 0 -3 3v1062q0 80 -61 102q-24 9 -43 9h-98q-3 0 -3 2zM140 1178q0 94 57 155h2q-2 -17 -2 -21q0 -68 69 -94q75 -15 97 -45q38 -41 38 -104v-55q0 -2 -3 -2h-99q-16 -6 -29 -6 q-53 0 -74 28q-56 59 -56 144z" />
<glyph unicode="k" horiz-adv-x="1098" d="M0 1571v11q0 86 56 146q0 -2 2 -2q-2 -3 -3 -20q0 -72 79 -96q10 -3 19 -3h146q2 0 2 -3v-798q1 -2 3 -2h396q3 -1 3 -3v-196q0 -2 -3 -2h-243q-72 0 -89 -34q0 -8 -1 -8q0 -31 95 -118q75 -75 441 -442v-1h-149l-451 450h-2v-447q0 -3 -2 -3h-196q-3 0 -3 3v1406 q-50 0 -89 95q-11 34 -11 67z" />
<glyph unicode="l" horiz-adv-x="453" d="M0 1556v11q0 85 56 144q0 -1 1 -1q-1 -3 -3 -20q0 -72 81 -97q19 0 19 -6q22 5 38 5h59q2 -1 2 -3v-1586q0 -3 -2 -3h-195q-3 0 -3 3v1416q-53 58 -53 137z" />
<glyph unicode="m" horiz-adv-x="1199" d="M0 763v11q0 86 56 145q0 -1 1 -1q-1 -3 -2 -20q0 -72 78 -96q5 -2 11 -2h298q83 0 107 -65q2 -9 2 -14h2v77q0 2 2 2h287q108 0 149 -85q12 -28 12 -57v-655q0 -3 -3 -3h-96q-2 0 -2 3v498q0 65 -62 93q-21 5 -45 5h-113v-447q0 -3 -3 -3h-196q-2 0 -2 3v343 q-14 49 -47 75q-32 29 -88 29h-92v-596q0 -3 -2 -3h-196q-3 0 -3 3v623q-53 58 -53 137z" />
<glyph unicode="n" horiz-adv-x="1052" d="M0 760v11q0 85 56 144q0 -1 1 -1q-1 -3 -3 -20q0 -71 79 -95q10 -3 18 -3h555q69 0 121 -61q22 -38 22 -77v-655q0 -3 -2 -3h-95q-2 0 -2 3v491q0 69 -59 96q-21 7 -41 7h-397v-594q0 -3 -2 -3h-195q-3 0 -3 3v621q-53 57 -53 136z" />
<glyph unicode="o" horiz-adv-x="1052" d="M0 767v10q0 87 56 146q0 -1 2 -1q-2 -3 -3 -20q0 -73 81 -98q11 0 21 -5q21 5 54 5h481q112 0 152 -92q10 -28 10 -60v-495q0 -99 -83 -145q-33 -12 -65 -12h-505q-79 0 -130 66q-21 39 -21 84v483q-50 57 -50 134zM254 278q0 -58 79 -72q13 -3 39 -3h317q36 0 47 20 q13 29 13 58v246q0 46 -57 66q-22 6 -43 6h-296q-76 0 -96 -57q-3 -14 -3 -19v-245z" />
<glyph unicode="p" horiz-adv-x="1172" d="M1 741v15q0 111 59 193l3 1v-1q0 -17 -1 -27q0 -96 87 -128h649q132 0 175 -107q10 -34 10 -65v-524q0 -94 -95 -114q-24 0 -37 -1q-249 1 -392 1h-246v-537q0 -3 -3 -3h-108q-3 0 -3 3v1079q0 1 -18 9q-80 80 -80 206zM213 155h536q103 0 124 68q8 21 8 42v129 q0 79 -68 112q-23 9 -67 9h-425q-73 0 -99 -59q-9 -26 -9 -73v-228z" />
<glyph unicode="q" horiz-adv-x="1052" d="M0 765v11q0 86 56 145q0 -1 1 -1q-1 -3 -2 -20q0 -72 78 -96q23 -4 23 -9q31 8 58 8h478q105 0 141 -75q20 -40 20 -84v-942q0 -65 56 -91q20 -6 34 -6h103q2 0 2 -2v-145q0 -3 -2 -3h-254q-62 0 -115 53q-29 41 -29 97v46q0 19 1 59q3 0 3 3v290h-452q-114 0 -144 120 q-3 23 -3 30v475q-53 58 -53 137zM157 281q6 -74 43 -74q4 -2 14 -2h318q86 0 109 44q8 15 8 32v240q0 52 -58 73q-15 5 -40 5h-294q-70 0 -95 -48q-5 -12 -5 -22v-248z" />
<glyph unicode="r" horiz-adv-x="1052" d="M0 766v11q0 86 56 146q0 -2 1 -2q-1 -3 -2 -20q0 -73 81 -97q11 0 20 -6q19 4 34 4h85q181 0 320 2q75 -2 257 -2l1 -2v-196q0 -2 -3 -2h-496q-68 0 -96 -59q-7 -20 -7 -38v-502q0 -3 -2 -3h-197q-3 0 -3 3v629q-49 58 -49 134z" />
<glyph unicode="s" horiz-adv-x="1055" d="M0 768v11q0 86 56 146q0 -2 2 -2q-2 -3 -3 -20q0 -72 79 -96q21 -3 21 -10q22 7 41 7h656q3 0 3 -3v-195q0 -3 -3 -3h-552q-42 0 -48 -50v-53q0 -33 35 -44q6 -3 17 -3h400q106 0 139 -94q12 -27 12 -67v-134q0 -111 -90 -146q-34 -12 -65 -12h-648q-2 0 -2 3v195 q0 3 2 3h585q46 0 56 19q11 15 11 40v36q0 39 -27 50q-10 5 -22 5h-483q-78 0 -100 35q-22 30 -22 76v172q-50 58 -50 134z" />
<glyph unicode="t" horiz-adv-x="800" d="M0 604v195q0 3 3 3h97v227q-51 58 -51 136v8q0 82 51 142l6 4h1l-1 -7v-21q0 -64 78 -88h114q3 -1 3 -3v-398h187q2 -1 2 -3v-195q0 -3 -2 -3h-187v-290q0 -78 60 -104q19 -7 40 -7h198q2 0 2 -2v-195q0 -3 -2 -3h-352q-78 0 -128 68q-19 38 -19 74v459h-97q-3 0 -3 3z " />
<glyph unicode="u" horiz-adv-x="1059" d="M0 766v11q0 86 56 145q0 -1 1 -1q-1 -3 -2 -20q0 -72 79 -96q10 -3 18 -3h97q2 0 2 -3v-502q0 -68 70 -91q20 -5 49 -5h260q82 0 103 40q18 28 18 61v497q1 3 3 3h96q3 0 3 -3v-641q0 -111 -90 -146q-34 -12 -65 -12h-497q-106 0 -140 94q-12 27 -12 66v472 q-49 58 -49 134z" />
<glyph unicode="v" d="M0 762v21q0 4 1 12l-1 3q16 81 51 118l6 5q0 -2 1 -2q-1 -3 -3 -20q0 -73 80 -97q10 -3 19 -3h47q6 -5 49 -124q101 -264 164 -398q20 -30 43 -30q26 0 54 54q0 5 199 498h98l3 -1q-194 -486 -318 -736q-41 -62 -78 -62h-12q-46 0 -96 84l-225 519q-30 11 -62 67 q-20 46 -20 92z" />
<glyph unicode="w" horiz-adv-x="1199" d="M0 765v11q0 85 56 145q0 -1 1 -1q-1 -3 -2 -20q0 -72 78 -96q6 -2 11 -2h5q3 0 6 -5v-187l-3 -4v-291q0 -81 56 -105q18 -8 39 -8h127v447q0 2 2 2h197q2 0 2 -2v-345q0 -24 43 -72q38 -30 79 -30h105v598q1 2 3 2h195q2 0 2 -2v-797q0 -3 -2 -3h-397q-68 0 -96 63 q-2 9 -2 14h-2v-74q0 -3 -2 -3h-299q-71 0 -122 56q-29 35 -29 111v463q-51 57 -51 135z" />
<glyph unicode="x" horiz-adv-x="1000" d="M0 763v11q0 86 56 145q0 -1 1 -1q-1 -3 -2 -20q0 -72 78 -96q10 -3 19 -3h52q185 -246 198 -261q17 -13 30 -13h4q33 0 75 57l192 217h99v-1q-318 -365 -321 -366q4 -8 321 -429v-3h-199q-185 246 -202 266q-17 15 -33 15q-24 0 -62 -51q-200 -228 -203 -230h-96 q-3 0 -3 3q10 8 321 366v1q-174 233 -176 233q-8 -4 -21 -4q-56 0 -73 27q-55 54 -55 137z" />
<glyph unicode="y" horiz-adv-x="999" d="M-5 764v20q0 5 1 13l-1 2q16 81 51 119l5 4q0 -2 2 -2q-2 -3 -3 -20q0 -73 79 -97q11 -2 19 -2h47q6 -5 49 -124q100 -263 162 -395q21 -30 43 -30q26 0 54 54q0 4 198 495h98l3 -2q-164 -409 -293 -688l-261 -671h-112q0 6 190 484l36 94q-47 28 -85 122 q-195 457 -200 466q-30 11 -62 67q-20 46 -20 91z" />
<glyph unicode="z" horiz-adv-x="1000" d="M0 3v4q0 169 273 386q154 116 260 173q48 27 66 34v2h-496q-2 0 -5 12q-73 55 -73 155v2q0 94 57 150h1l-1 -7v-21q0 -61 76 -88q12 -3 20 -3h621q3 0 3 -3v-196q-1 -3 -122 -76q-138 -88 -266 -191q-90 -80 -109 -123l-4 -11l2 -1h496q3 -1 3 -3v-195q0 -3 -3 -3h-796 q-3 0 -3 3z" />
<glyph unicode="{" d="M240 638v60q172 5 223 71t51 133v468q0 74 77 141.5t185 67.5h108v-50h-90q-61 0 -107 -33.5t-47 -91.5v-500q0 -83 -60.5 -158.5t-142.5 -76.5v-2q82 -1 143 -76t61 -158l-1 -500q1 -58 47 -91.5t107 -33.5h90v-50h-108q-108 0 -184.5 67.5t-77.5 141.5v468 q0 66 -51 132t-223 71z" />
<glyph unicode="|" d="M427 -418v1995h160v-1995h-160z" />
<glyph unicode="}" d="M130 -192h90q61 0 107 33.5t47 91.5l-1 500q0 83 61 158t144 76v2q-83 1 -143.5 76.5t-60.5 158.5v500q-1 58 -47 91.5t-107 33.5h-90v50h108q108 0 185 -67.5t77 -141.5v-468q0 -67 51 -133t223 -71v-60q-172 -5 -223 -71t-51 -132v-468q-1 -74 -77.5 -141.5 t-184.5 -67.5h-108v50z" />
<glyph unicode="~" d="M94 556v156q64 73 123 99t114 26q64 0 181.5 -49.5t172.5 -49.5q52 0 108.5 28t129.5 112v-156q-63 -72 -122 -97.5t-116 -25.5q-60 0 -177.5 48.5t-176.5 48.5q-51 0 -107.5 -28t-129.5 -112z" />
<glyph unicode="&#xa1;" horiz-adv-x="672" />
<glyph unicode="&#xa2;" horiz-adv-x="1139" />
<glyph unicode="&#xa3;" d="M76 673v60h135q-58 143 -58 253q0 226 123.5 347t306.5 121h4q75 0 185.5 -14t110.5 -34v-161h-58q-5 61 -77 102q-72 31 -160 31h-2q-100 0 -190 -101q-84 -93 -84 -241q0 -15 1 -30q0 -135 53 -273h360v-60h-334q14 -30 31 -60q35 -63 35 -138q0 -161 -162 -375h402 q130 0 189 132l49 -1l-103 -231h-719l1 50q187 238 187 418q0 77 -34 143q-17 32 -31 62h-161z" />
<glyph unicode="&#xa4;" d="M122 413l118 117q-32 46 -48 103q-12 42 -12 84q0 44 13 87q16 55 47 99l-118 118l80 81l118 -118q44 30 99 46q44 14 89 14q41 0 83 -12q57 -17 102 -48l118 118l80 -81l-117 -117q31 -46 48 -102q12 -42 12 -85q0 -42 -12 -85q-17 -56 -48 -102l117 -117l-80 -81 l-118 118q-45 -32 -101 -48q-42 -12 -85 -12q-42 0 -85 12q-57 16 -102 48l-118 -118zM284 716q0 -28 9 -56q16 -59 57 -100q41 -40 99 -57q29 -8 58 -8t58 8q58 17 99 57q40 41 57 99q9 29 9 58t-9 58q-17 58 -57 99q-41 40 -100 57q-29 8 -58 8t-58 -9q-58 -17 -98 -56 q-39 -40 -56 -98q-10 -30 -10 -60z" />
<glyph unicode="&#xa5;" horiz-adv-x="1262" d="M8 1176q0 19 10.5 27.5t32.5 8.5q27 0 123 -8t164 -8h88q33 0 41 -6.5t8 -26.5q0 -8 -15 -14t-38 -6q-6 0 -18.5 2t-18.5 2q-24 0 -37.5 -9.5t-13.5 -25.5q0 -18 16.5 -52t46.5 -77l158 -221q13 -19 33 -53q41 -70 71 -70q9 0 16.5 5t14.5 15l277 396q8 12 13 26.5 t5 24.5q0 18 -10 27t-37 14q-15 2 -41 4q-47 3 -47 25q0 15 8 22.5t25 7.5q3 0 15 -1q56 -7 108 -7h139q30 0 65 1t37 1q11 0 18.5 -4.5t8.5 -11.5q0 -28 -38 -34q-18 -3 -27 -5q-63 -15 -147 -117q-7 -9 -12 -15l-169 -206h323q15 0 24 -6t9 -17q0 -15 -6 -20.5t-23 -5.5 h-366q-46 -57 -96.5 -112.5t-52.5 -59.5h511q18 0 25.5 -5.5t7.5 -17.5q0 -14 -7 -21t-22 -7h-530q0 -11 -1 -30.5t-1 -29.5l2 -215q0 -114 5.5 -150t20.5 -44q30 -17 107.5 -19t77.5 -31q0 -12 -10 -20t-25 -8q-2 0 -35.5 4t-64.5 4q-91 0 -208.5 -4t-142.5 -4q-31 0 -40 4 t-9 16t8 18.5t37 12.5q9 2 25 5q74 16 92 32q17 13 24 47t7 102l-2 242q0 19 -1.5 35t-4.5 32l-484 1q-14 0 -21 6.5t-7 19.5t6.5 19t21.5 6h467l-121 172h-344q-17 0 -23.5 5.5t-6.5 18.5q0 14 6 19.5t22 5.5h307q-43 57 -108 155q-131 197 -227 197q-7 0 -13 5.5t-6 11.5z " />
<glyph unicode="&#xa6;" d="M427 371h160v-789h-160v789zM427 789v789h160v-789h-160z" />
<glyph unicode="&#xa7;" d="M170 1130q0 148 89 237q82 79 216 86q8 1 17 1h3q66 0 163 -16.5t97 -41.5v-194h-51q-5 81 -80 132q-70 47 -149 51h-15q-78 0 -125 -44.5t-47 -117.5q0 -132 287 -269q149 -67 204.5 -143.5t55.5 -187.5q0 -171 -101 -282q-47 -39 -99 -64q108 -56 154 -118 q55 -77 55 -187q0 -171 -101 -283q-124 -102 -277 -105v1q-6 -1 -13 -1h-3q-66 0 -163 16.5t-97 41.5v194h51q5 -81 80 -132q68 -45 145 -50q113 6 185 69q72 64 72 165q0 125 -316 276q-123 64 -175.5 137t-52.5 177q0 148 89 237q67 65 170 82l-40 19q-123 64 -175.5 137 t-52.5 177zM297 571q0 -123 248 -250q56 16 97 53q73 65 73 166q0 5 -1 10h-2q-1 14 -4 27q-22 61 -113 127q-59 29 -126 29q-78 0 -125 -44.5t-47 -117.5z" />
<glyph unicode="&#xa8;" horiz-adv-x="1024" d="M209 1263q0 13 14 26l71 72q13 12 25 12q11 0 27 -14l69 -73q10 -14 10 -25q0 -13 -12 -27l-69 -75q-17 -17 -25 -17q-14 0 -25 12l-76 86q-9 12 -9 23zM574 1263q0 13 14 26l71 72q13 12 25 12q11 0 27 -13l69 -74q10 -14 10 -25q0 -13 -12 -26l-69 -76q-17 -17 -25 -17 q-14 0 -25 12l-76 87q-9 11 -9 22z" />
<glyph unicode="&#xa9;" horiz-adv-x="1674" d="M100 718q0 148 55.5 283t159.5 238q102 104 238.5 160.5t286.5 56.5q145 0 280 -56.5t239 -160.5q102 -101 158.5 -238t56.5 -283q0 -147 -56.5 -282t-162.5 -240q-105 -105 -239 -159.5t-283 -54.5q-146 0 -278 55.5t-238 160.5q-106 104 -161.5 237.5t-55.5 282.5z M160 718q0 -137 51 -259t148 -219q98 -96 219 -147t256 -51q137 0 259.5 50.5t219.5 145.5q97 98 149 221.5t52 258.5q0 134 -52 259.5t-145 219.5q-96 96 -220 147.5t-258 51.5q-137 0 -262 -51.5t-220 -147.5t-146 -219.5t-51 -259.5zM351 719q0 126 65.5 244t187.5 184.5 t254 66.5q38 0 75 -6.5t76 -20.5q5 -1 9 -1q19 0 26 30h42l72 -198h-44q-52 94 -131 124q-72 26 -147 26h-15q-86 -8 -166.5 -71t-121.5 -177q-33 -90 -33 -184q0 -25 2 -50q11 -121 69.5 -224t149.5 -152q72 -40 166 -42q124 0 194 56t70 126h53v-100q0 -46 -96.5 -86.5 t-242.5 -40.5q-142 0 -264 68t-186 185t-64 243z" />
<glyph unicode="&#xaa;" horiz-adv-x="648" />
<glyph unicode="&#xab;" horiz-adv-x="944" d="M174 479l342 303h14v-37l-205 -266l205 -266v-37h-14zM487 479l342 303h14v-37l-205 -266l205 -266v-37h-14z" />
<glyph unicode="&#xac;" d="M87 667v100h840v-491l-1 -1h-98v392h-741z" />
<glyph unicode="&#xad;" horiz-adv-x="1296" d="M-8 539v14q0 114 74 193q0 -2 2 -2q-2 -4 -4 -26q0 -96 105 -127q13 -4 24 -4h847q42 0 74 -74q3 -20 3 -28v-59q0 -68 -67 -102l-21 -2h-882q-67 8 -67 21q-88 74 -88 196z" />
<glyph unicode="&#xae;" horiz-adv-x="1674" d="M100 718q0 148 55.5 283t159.5 238q102 104 238.5 160.5t286.5 56.5q145 0 280 -56.5t239 -160.5q102 -101 158.5 -238t56.5 -283q0 -147 -56.5 -282t-162.5 -240q-105 -105 -239 -159.5t-283 -54.5q-146 0 -278 55.5t-238 160.5q-106 104 -161.5 237.5t-55.5 282.5z M160 718q0 -137 51 -259t148 -219q98 -96 219 -147t256 -51q137 0 259.5 50.5t219.5 145.5q97 98 149 221.5t52 258.5q0 134 -52 259.5t-145 219.5q-96 96 -220 147.5t-258 51.5q-137 0 -262 -51.5t-220 -147.5t-146 -219.5t-51 -259.5zM524 269v50h43q37 0 37 121v538 q0 121 -37 121h-43v70h356q64 -1 125 -42q60 -41 92.5 -114t32.5 -152q0 -78 -32 -150.5t-114 -134.5l82 -116q100 -141 150 -141h34v-50h-346v50h45q30 0 30 22q0 29 -69 114l-75 102q-42 0 -84 42v-159q0 -121 36 -121h53v-50h-316zM751 725l3 -8q23 -56 56 -81 q29 -22 56 -22h6q31 4 61.5 38.5t46.5 97.5q13 50 13 103q0 13 -1 27q-4 67 -28 124.5t-56.5 76t-63.5 18.5h-93v-374z" />
<glyph unicode="&#xaf;" horiz-adv-x="670" />
<glyph unicode="&#xb0;" horiz-adv-x="674" d="M60 1164q0 116 81.5 197t197.5 81q115 0 196 -81.5t81 -196.5q0 -114 -82 -196t-197 -82q-117 0 -197 81t-80 197zM130 1163q0 -87 61 -147t148 -60t147 60t60 147t-60.5 148t-146.5 61t-147.5 -61t-61.5 -148z" />
<glyph unicode="&#xb1;" />
<glyph unicode="&#xb2;" />
<glyph unicode="&#xb3;" />
<glyph unicode="&#xb4;" horiz-adv-x="1024" d="M316 1078l291 297q35 35 55.5 47t40.5 12q33 0 53.5 -20t20.5 -51q0 -22 -15.5 -42t-46.5 -40l-330 -203h-69z" />
<glyph unicode="&#xb5;" horiz-adv-x="1180" />
<glyph unicode="&#xb6;" horiz-adv-x="1024" d="M93 1086q0 157 107.5 253t285.5 96h443v-70h-127v-1365h-82v1365h-166v-1365h-84v738q-174 8 -275.5 102.5t-101.5 245.5z" />
<glyph unicode="&#xb7;" horiz-adv-x="508" d="M129 709q0 15 16 31l82 84q15 14 29 14q13 0 31 -16l80 -86q12 -16 12 -29q0 -15 -14 -31l-80 -88q-20 -20 -29 -20q-16 0 -29 14l-88 101q-10 13 -10 26z" />
<glyph unicode="&#xb8;" horiz-adv-x="1024" d="M360 -290q85 -52 152 -52q66 0 94.5 21.5t28.5 66.5t-49 64q-40 16 -102 16q-16 0 -34 -2l48 176h63l-37 -104q32 4 62 5q86 0 134 -40.5t48 -113.5q0 -76 -58.5 -120.5t-160.5 -44.5q-109 0 -189 32v96z" />
<glyph unicode="&#xb9;" />
<glyph unicode="&#xba;" horiz-adv-x="718" />
<glyph unicode="&#xbb;" horiz-adv-x="944" d="M101 176v37l205 266l-205 266v37h14l342 -303l-342 -303h-14zM414 176v37l205 266l-205 266v37h14l342 -303l-342 -303h-14z" />
<glyph unicode="&#xbc;" horiz-adv-x="1708" />
<glyph unicode="&#xbd;" horiz-adv-x="1964" />
<glyph unicode="&#xbe;" horiz-adv-x="1708" />
<glyph unicode="&#xbf;" horiz-adv-x="748" />
<glyph unicode="&#xc0;" horiz-adv-x="1540" />
<glyph unicode="&#xc1;" horiz-adv-x="1540" />
<glyph unicode="&#xc2;" horiz-adv-x="1540" />
<glyph unicode="&#xc3;" horiz-adv-x="1540" />
<glyph unicode="&#xc4;" horiz-adv-x="1540" />
<glyph unicode="&#xc5;" horiz-adv-x="1540" />
<glyph unicode="&#xc6;" horiz-adv-x="2118" />
<glyph unicode="&#xc7;" horiz-adv-x="1399" />
<glyph unicode="&#xc8;" horiz-adv-x="1151" />
<glyph unicode="&#xc9;" horiz-adv-x="1151" />
<glyph unicode="&#xca;" horiz-adv-x="1151" />
<glyph unicode="&#xcb;" horiz-adv-x="1151" />
<glyph unicode="&#xcc;" horiz-adv-x="657" />
<glyph unicode="&#xcd;" horiz-adv-x="657" />
<glyph unicode="&#xce;" horiz-adv-x="657" />
<glyph unicode="&#xcf;" horiz-adv-x="657" />
<glyph unicode="&#xd0;" horiz-adv-x="1518" />
<glyph unicode="&#xd1;" horiz-adv-x="1554" />
<glyph unicode="&#xd2;" horiz-adv-x="1614" />
<glyph unicode="&#xd3;" horiz-adv-x="1614" />
<glyph unicode="&#xd4;" horiz-adv-x="1614" />
<glyph unicode="&#xd5;" horiz-adv-x="1614" />
<glyph unicode="&#xd6;" horiz-adv-x="1614" />
<glyph unicode="&#xd7;" d="M161 470l247 247l-247 248l99 98l247 -247l248 247l98 -99l-247 -247l247 -247l-99 -99l-247 247l-247 -247z" />
<glyph unicode="&#xd8;" horiz-adv-x="1614" />
<glyph unicode="&#xd9;" horiz-adv-x="1501" />
<glyph unicode="&#xda;" horiz-adv-x="1501" />
<glyph unicode="&#xdb;" horiz-adv-x="1501" />
<glyph unicode="&#xdc;" horiz-adv-x="1501" />
<glyph unicode="&#xdd;" horiz-adv-x="1233" />
<glyph unicode="&#xde;" horiz-adv-x="1120" />
<glyph unicode="&#xdf;" horiz-adv-x="1251" />
<glyph unicode="&#xe0;" horiz-adv-x="922" />
<glyph unicode="&#xe1;" horiz-adv-x="922" />
<glyph unicode="&#xe2;" horiz-adv-x="922" />
<glyph unicode="&#xe3;" horiz-adv-x="922" />
<glyph unicode="&#xe4;" horiz-adv-x="922" />
<glyph unicode="&#xe5;" horiz-adv-x="922" />
<glyph unicode="&#xe6;" horiz-adv-x="1454" />
<glyph unicode="&#xe7;" horiz-adv-x="905" />
<glyph unicode="&#xe8;" horiz-adv-x="909" />
<glyph unicode="&#xe9;" horiz-adv-x="909" />
<glyph unicode="&#xea;" horiz-adv-x="909" />
<glyph unicode="&#xeb;" horiz-adv-x="909" />
<glyph unicode="&#xec;" horiz-adv-x="514" />
<glyph unicode="&#xed;" horiz-adv-x="514" />
<glyph unicode="&#xee;" horiz-adv-x="514" />
<glyph unicode="&#xef;" horiz-adv-x="514" />
<glyph unicode="&#xf0;" horiz-adv-x="1139" />
<glyph unicode="&#xf1;" horiz-adv-x="1108" />
<glyph unicode="&#xf2;" horiz-adv-x="1010" />
<glyph unicode="&#xf3;" horiz-adv-x="1010" />
<glyph unicode="&#xf4;" horiz-adv-x="1010" />
<glyph unicode="&#xf5;" horiz-adv-x="1010" />
<glyph unicode="&#xf6;" horiz-adv-x="1010" />
<glyph unicode="&#xf7;" d="M87 647v140h839l1 -1v-139h-840zM382 377q0 15 16 31l82 84q15 14 29 14q13 0 31 -16l80 -86q12 -16 12 -29q0 -15 -14 -31l-80 -88q-20 -20 -29 -20q-16 0 -29 14l-88 101q-10 13 -10 26zM382 1070q0 15 16 31l82 84q15 14 29 14q13 0 31 -16l80 -86q12 -16 12 -29 q0 -15 -14 -31l-80 -88q-20 -20 -29 -20q-16 0 -29 14l-88 101q-10 13 -10 26z" />
<glyph unicode="&#xf8;" horiz-adv-x="1010" />
<glyph unicode="&#xf9;" horiz-adv-x="1059" />
<glyph unicode="&#xfa;" horiz-adv-x="1059" />
<glyph unicode="&#xfb;" horiz-adv-x="1059" />
<glyph unicode="&#xfc;" horiz-adv-x="1059" />
<glyph unicode="&#xfd;" horiz-adv-x="868" />
<glyph unicode="&#xfe;" horiz-adv-x="1010" />
<glyph unicode="&#xff;" horiz-adv-x="868" />
<glyph unicode="&#x2c6;" horiz-adv-x="1024" d="M221 1079l232 355h118l232 -355h-58l-233 216l-233 -216h-58z" />
<glyph unicode="&#x2dc;" horiz-adv-x="1024" d="M234 1132q19 106 68 158.5t129 52.5q46 -1 113 -24q64 -23 112 -23h4q36 0 58 20t36 66h54q-20 -103 -68.5 -154t-126.5 -51h-4q-50 0 -113 23q-66 24 -114 24q-39 0 -60.5 -20.5t-33.5 -71.5h-54z" />
<glyph unicode="&#x2000;" horiz-adv-x="864" />
<glyph unicode="&#x2001;" horiz-adv-x="1728" />
<glyph unicode="&#x2002;" horiz-adv-x="864" />
<glyph unicode="&#x2003;" horiz-adv-x="1728" />
<glyph unicode="&#x2004;" horiz-adv-x="576" />
<glyph unicode="&#x2005;" horiz-adv-x="432" />
<glyph unicode="&#x2006;" horiz-adv-x="288" />
<glyph unicode="&#x2007;" horiz-adv-x="288" />
<glyph unicode="&#x2008;" horiz-adv-x="216" />
<glyph unicode="&#x2009;" horiz-adv-x="345" />
<glyph unicode="&#x200a;" horiz-adv-x="96" />
<glyph unicode="&#x2010;" horiz-adv-x="1296" d="M-8 539v14q0 114 74 193q0 -2 2 -2q-2 -4 -4 -26q0 -96 105 -127q13 -4 24 -4h847q42 0 74 -74q3 -20 3 -28v-59q0 -68 -67 -102l-21 -2h-882q-67 8 -67 21q-88 74 -88 196z" />
<glyph unicode="&#x2011;" horiz-adv-x="1296" d="M-8 539v14q0 114 74 193q0 -2 2 -2q-2 -4 -4 -26q0 -96 105 -127q13 -4 24 -4h847q42 0 74 -74q3 -20 3 -28v-59q0 -68 -67 -102l-21 -2h-882q-67 8 -67 21q-88 74 -88 196z" />
<glyph unicode="&#x2012;" horiz-adv-x="1296" d="M-8 539v14q0 114 74 193q0 -2 2 -2q-2 -4 -4 -26q0 -96 105 -127q13 -4 24 -4h847q42 0 74 -74q3 -20 3 -28v-59q0 -68 -67 -102l-21 -2h-882q-67 8 -67 21q-88 74 -88 196z" />
<glyph unicode="&#x2013;" horiz-adv-x="1108" d="M56 419v120h996v-120h-996z" />
<glyph unicode="&#x2014;" horiz-adv-x="2048" d="M0 419v120h2048v-120h-2048z" />
<glyph unicode="&#x2018;" horiz-adv-x="557" d="M186 1233q0 109 71 226.5t139 117.5v-43q-73 -43 -87 -190q0 -119 129 -161v-42l-119 -125q-44 0 -88.5 65.5t-44.5 151.5z" />
<glyph unicode="&#x2019;" horiz-adv-x="557" d="M119 1410v42l119 125q44 0 88.5 -65.5t44.5 -151.5q0 -109 -71 -226.5t-139 -117.5v43q73 43 87 190q0 119 -129 161z" />
<glyph unicode="&#x201a;" horiz-adv-x="557" d="M119 114v42l119 125q44 0 88.5 -65.5t44.5 -151.5q0 -109 -71 -226.5t-139 -117.5v43q73 43 87 190q0 119 -129 161z" />
<glyph unicode="&#x201c;" horiz-adv-x="910" d="M186 1233q0 109 71 226.5t139 117.5v-43q-73 -43 -87 -190q0 -119 129 -161v-42l-119 -125q-44 0 -88.5 65.5t-44.5 151.5zM539 1233q0 109 71 226.5t139 117.5v-43q-73 -43 -87 -190q0 -119 129 -161v-42l-119 -125q-44 0 -88.5 65.5t-44.5 151.5z" />
<glyph unicode="&#x201d;" horiz-adv-x="910" d="M119 1410v42l119 125q44 0 88.5 -65.5t44.5 -151.5q0 -109 -71 -226.5t-139 -117.5v43q73 43 87 190q0 119 -129 161zM472 1410v42l119 125q44 0 88.5 -65.5t44.5 -151.5q0 -109 -71 -226.5t-139 -117.5v43q73 43 87 190q0 119 -129 161z" />
<glyph unicode="&#x201e;" horiz-adv-x="910" d="M119 114v42l119 125q44 0 88.5 -65.5t44.5 -151.5q0 -109 -71 -226.5t-139 -117.5v43q73 43 87 190q0 119 -129 161zM472 114v42l119 125q44 0 88.5 -65.5t44.5 -151.5q0 -109 -71 -226.5t-139 -117.5v43q73 43 87 190q0 119 -129 161z" />
<glyph unicode="&#x2022;" horiz-adv-x="1024" d="M216 718q0 123 87 209t210 86q122 0 208.5 -86.5t86.5 -208.5t-87.5 -209.5t-209.5 -87.5q-123 0 -209 87t-86 210z" />
<glyph unicode="&#x2026;" horiz-adv-x="2048" d="M129 136q0 15 16 31l82 84q15 14 29 14q13 0 31 -16l80 -86q12 -16 12 -29q0 -15 -14 -31l-80 -88q-20 -20 -29 -20q-16 0 -29 14l-88 101q-10 13 -10 26zM812 136q0 15 16 31l82 84q15 14 29 14q13 0 31 -16l80 -86q12 -16 12 -29q0 -15 -14 -31l-80 -88 q-20 -20 -29 -20q-16 0 -29 14l-88 101q-10 13 -10 26zM1495 136q0 15 16 31l82 84q15 14 29 14q13 0 31 -16l80 -86q12 -16 12 -29q0 -15 -14 -31l-80 -88q-20 -20 -29 -20q-16 0 -29 14l-88 101q-10 13 -10 26z" />
<glyph unicode="&#x202f;" horiz-adv-x="345" />
<glyph unicode="&#x2039;" horiz-adv-x="631" d="M174 479l342 303h14v-37l-205 -266l205 -266v-37h-14z" />
<glyph unicode="&#x203a;" horiz-adv-x="631" d="M101 176v37l205 266l-205 266v37h14l342 -303l-342 -303h-14z" />
<glyph unicode="&#x205f;" horiz-adv-x="432" />
<glyph unicode="&#x20ac;" d="M-44 653l17 60h87v29q0 16 1 31h-71l17 60h58q14 145 76 281q81 178 226 274t298 96q43 0 87 -8q40 -10 82 -29q8 -6 16 -6q20 0 34 45h41l84 -281l-40 -1q-49 134 -138 178q-43 22 -81 32v3q-50 16 -101 16q-17 0 -34 -2q-120 -12 -226 -113.5t-157 -273.5 q-32 -104 -39 -211h706l-17 -60h-692q0 -30 2 -60h674l-17 -60h-652q17 -158 83 -298q74 -157 193 -236q102 -68 216 -69q186 3 256 91q74 91 74 185h48v-143q0 -70 -111 -127q-105 -54 -267 -56q-181 0 -325.5 98t-223.5 274q-62 135 -76 281h-108z" />
<glyph unicode="&#x2122;" horiz-adv-x="1497" />
<glyph unicode="&#x25fc;" horiz-adv-x="920" d="M0 0v920h920v-920h-920z" />
</font>
</defs>
</svg>
